<svg height='100px' width='100px'  fill="#000000" xmlns="http://www.w3.org/2000/svg" xmlns:xlink="http://www.w3.org/1999/xlink" version="1.1" x="0px" y="0px" viewBox="0 0 100 100" enable-background="new 0 0 100 100" xml:space="preserve"><g><g><path d="M28.256,98.004c-0.442,0-0.89-0.102-1.306-0.312c-1.231-0.624-1.851-2.031-1.478-3.36l11.528-41.188H21.98    c-0.969,0-1.873-0.484-2.409-1.291s-0.633-1.828-0.258-2.721l18.834-44.86C38.598,3.199,39.649,2.5,40.814,2.5h25.111    c1.027,0,1.976,0.544,2.495,1.43c0.52,0.885,0.53,1.979,0.029,2.876L52.025,36.145h20.178c1.105,0,2.116,0.632,2.6,1.626    c0.484,0.995,0.359,2.179-0.323,3.05L30.535,96.896C29.971,97.614,29.123,98.004,28.256,98.004z M26.332,47.36h14.482    c0.905,0,1.758,0.424,2.304,1.145c0.547,0.721,0.725,1.656,0.481,2.527l-8.627,30.821l31.289-39.923H47.091    c-1.026,0-1.976-0.544-2.496-1.43c-0.519-0.885-0.53-1.98-0.028-2.875L60.99,8.285H42.737L26.332,47.36z"></path></g></g><g><path d="M47.091,90.504c-1.598,0-2.893-1.295-2.893-2.893s1.295-2.893,2.893-2.893c18.355,0,33.289-14.935,33.289-33.289   c0-11.361-5.709-21.827-15.269-27.995c-1.343-0.866-1.729-2.656-0.862-3.999c0.867-1.342,2.658-1.727,3.999-0.862   c11.218,7.238,17.917,19.521,17.917,32.856C86.165,72.976,68.637,90.504,47.091,90.504z"></path></g><g><path d="M24.246,82.379c-0.643,0-1.289-0.211-1.825-0.65C13.268,74.271,8.018,63.227,8.018,51.43   c0-11.703,5.182-22.693,14.218-30.15c1.232-1.016,3.056-0.842,4.072,0.39s0.842,3.056-0.39,4.072   c-7.7,6.354-12.116,15.717-12.116,25.688c0,10.051,4.474,19.459,12.272,25.815c1.239,1.01,1.424,2.83,0.416,4.069   C25.918,82.017,25.085,82.379,24.246,82.379z"></path></g></svg>