<svg height='100px' width='100px'  fill="#000000" xmlns="http://www.w3.org/2000/svg" xmlns:xlink="http://www.w3.org/1999/xlink" version="1.1" x="0px" y="0px" viewBox="0 0 600 492" enable-background="new 0 0 600 492" xml:space="preserve"><g><g><path d="M253.689,117.906"></path></g><g><path d="M253.689,117.906"></path></g><g><path d="M262.555,111.593"></path></g><g><path d="M348.59,458.013c-6.649,0-13.319-1.263-19.637-3.821L278.149,433.7c-6.27-2.529-9.302-9.662-6.773-15.931    c2.528-6.269,9.658-9.308,15.931-6.773l50.82,20.499c8.373,3.389,17.894,2.513,25.509-2.341l5.444-3.655l-45.411-21.631    c-4.405-2.097-6.98-6.486-6.98-11.06c0-1.764,0.384-3.555,1.192-5.255c2.907-6.1,10.211-8.698,16.315-5.786l57.826,27.543    l18.703-15.177l-69.42-42.678c-3.763-2.313-5.835-6.332-5.832-10.448c0.002-2.183,0.588-4.394,1.815-6.391    c3.541-5.757,11.081-7.556,16.838-4.016l75.728,46.555l17.609-18.355l-83.276-59.729c-3.331-2.389-5.105-6.143-5.107-9.952    c-0.001-2.472,0.745-4.968,2.295-7.129c3.942-5.493,11.589-6.754,17.082-2.813l85.126,61.055l7.406-9.642    c3.284-4.276,4.671-9.567,3.909-14.902c-0.763-5.336-3.58-10.028-7.93-13.212L320.284,195.161    c-8.426,4.71-16.611,9.349-21.164,12.024c-6.328,25.403-19.314,55.509-45.817,65.173c-16.117,5.877-34.627,2.588-49.515-8.797    c-3.987-3.049-5.709-8.223-4.344-13.054c8.213-29.053,6.23-49.518,4.783-64.462c-1.048-10.823-1.876-19.373,2.059-26.806    c6.762-12.77,22.906-24.014,41.599-37.034c4.47-3.113,9.091-6.332,13.685-9.642c1.124-0.81,2.561-1.874,4.288-3.153    c15.767-11.668,57.65-42.662,105.073-60.906c27.402-10.544,52.828-15.384,75.597-14.39c28.522,1.246,53.081,11.551,72.994,30.632    c39.429,37.78,56.037,86.492,46.767,137.158c-7.961,43.512-35.496,84.327-68.727,103.34c0.701,2.258,1.227,4.59,1.569,6.979    c1.704,11.915-1.395,23.734-8.729,33.281l-14.593,18.999c-0.074,0.097-0.149,0.193-0.226,0.287    c-0.002,0.003-0.004,0.005-0.006,0.008l0,0c-0.25,0.308-0.512,0.601-0.785,0.879l-34.074,35.516    c-0.092,0.097-0.186,0.193-0.281,0.287c-0.003,0.003-0.006,0.005-0.009,0.008c0,0,0,0-0.001,0c-0.31,0.305-0.633,0.59-0.968,0.856    l-37.97,30.811c-0.133,0.108-0.27,0.215-0.408,0.319c-0.006,0.005-0.011,0.01-0.018,0.013c0,0.002-0.001,0.002-0.002,0.002    c-0.183,0.137-0.37,0.27-0.56,0.396l-23.328,15.668c-0.068,0.046-0.136,0.091-0.205,0.136    C368.396,455.199,358.518,458.013,348.59,458.013z M321.179,168.409c2.55,0,5.088,0.794,7.229,2.362l153.013,111.948    c0.901,0.659,1.772,1.346,2.613,2.062c27.854-14.982,51.313-49.794,58.172-87.283c5.476-29.93,3.047-74.191-39.622-115.076    c-28.825-27.62-70.164-31.345-122.864-11.07c-44.322,17.05-84.264,46.608-99.3,57.735c-1.827,1.352-3.348,2.477-4.536,3.333    c-4.755,3.427-9.459,6.705-14.009,9.874c-14.617,10.18-29.727,20.703-33.857,28.219c-0.514,1.925,0.089,8.15,0.575,13.17    c1.4,14.456,3.45,35.618-3.261,64.444c5.092,2.333,12.053,3.97,19.583,1.228c13.618-4.966,24.617-22.918,31.063-50.638    c0.247-6.486,6.014-9.869,11.198-12.907c3.121-1.831,7.298-4.214,11.48-6.577c8.284-4.682,16.586-9.29,16.586-9.29    C317.096,168.916,319.142,168.409,321.179,168.409z"></path></g><g><path d="M101.88,313.996c-2.652,0-5.324-0.858-7.568-2.627c-23.924-18.851-66.605-86.862-62.881-149.647    c2.282-38.472,21.633-69.905,55.962-90.9c72.561-44.373,140.714-9.105,190.475,16.65c5.562,2.879,10.815,5.596,15.822,8.072    c6.06,2.997,8.545,10.338,5.549,16.398c-2.997,6.06-10.338,8.548-16.397,5.548c-5.211-2.574-10.562-5.344-16.227-8.276    c-47.073-24.363-105.658-54.684-166.449-17.507c-27.581,16.867-42.484,40.911-44.297,71.463    c-3.243,54.673,36.097,115.18,53.595,128.967c5.31,4.185,6.222,11.882,2.038,17.191    C109.087,312.395,105.501,313.996,101.88,313.996z"></path></g><g><path d="M226.903,444.475c-1.465,0-2.954-0.265-4.402-0.823c-6.308-2.432-9.449-9.516-7.017-15.826l27.342-70.904    c1.986-5.151,0.067-11.071-4.564-14.078c-2.705-1.754-5.926-2.322-9.065-1.587c-3.141,0.732-5.778,2.663-7.427,5.435    c-3.456,5.808-10.965,7.716-16.778,4.263c-5.81-3.456-7.719-10.968-4.263-16.779c5.084-8.548,13.219-14.5,22.905-16.76    c9.687-2.258,19.614-0.523,27.958,4.893c14.284,9.272,20.204,27.535,14.076,43.423l-27.342,70.904    C236.453,441.494,231.817,444.475,226.903,444.475z"></path></g><g><path d="M109.892,360.669c-1.679,0-3.371-0.123-5.068-0.372c-10.653-1.566-19.749-7.869-24.955-17.294l-1.528-2.764    c-8.721-15.784-3.628-35.723,11.593-45.392l15.334-9.741c15.57-9.891,35.854-5.666,46.176,9.622l-0.001-0.002    c9.152,13.551,7.31,31.685-4.38,43.117l-13.362,13.071C127.229,357.243,118.757,360.669,109.892,360.669z M123.426,304.294    c-1.719,0-3.461,0.477-5.03,1.474l-15.335,9.743c-4.323,2.746-5.769,8.406-3.293,12.888l1.528,2.765    c1.478,2.678,4.061,4.467,7.087,4.912c3.023,0.437,6.013-0.526,8.2-2.665l13.362-13.071c3.23-3.159,3.739-8.169,1.21-11.912    c0,0,0,0-0.001-0.002C129.343,305.744,126.42,304.294,123.426,304.294z"></path></g><g><path d="M529.999,268.006"></path></g><g><path d="M254.543,453.183c-4.923,0-9.954-0.81-14.909-2.515l-2.646-0.911c-20.36-6.995-45.975-15.795-73.729-32.626    c-0.207-0.115-0.412-0.238-0.615-0.367c-0.064-0.04-0.128-0.081-0.19-0.123c-11.75-7.18-23.879-15.808-36.148-26.352    c-6.982-6-11.279-14.596-11.788-23.583c-0.494-8.727,2.51-17.068,8.461-23.486c0.199-0.214,0.404-0.421,0.618-0.62l44.074-41.198    c11.86-12.441,31.347-14.489,45.54-4.71c15.232,10.496,19.758,31.171,10.301,47.069c-0.061,0.104-0.124,0.206-0.187,0.306    l-0.984,1.55c-0.222,0.474-0.478,0.939-0.767,1.392l-35.17,55.221c11.517,6.255,22.599,11.121,33.085,15.21l11.622-30.135    c6.9-17.894,26.647-27.452,44.967-21.755c9.653,3.001,17.703,9.949,22.086,19.058c4.383,9.108,4.788,19.733,1.111,29.149    l-5.161,13.081C287.726,443.204,271.811,453.181,254.543,453.183z M242.517,425.771c0.814,0.279,1.623,0.558,2.427,0.834    l2.659,0.914c10.03,3.451,20.233-0.684,23.723-9.623l5.161-13.081c1.217-3.116,1.086-6.536-0.383-9.588    c-1.47-3.054-4.06-5.29-7.296-6.296c-6.051-1.891-12.575,1.276-14.854,7.186L242.517,425.771z M140.707,360.12    c-1.574,1.845-1.823,3.832-1.746,5.201c0.135,2.381,1.338,4.714,3.301,6.402c7.842,6.738,15.592,12.61,23.208,17.776    l37.075-58.376c2.794-4.845,1.395-11.089-3.224-14.271c-4.378-3.014-10.411-2.354-14.027,1.549    c-0.199,0.214-0.405,0.421-0.619,0.62L140.707,360.12z"></path></g></g></svg>