<svg height='100px' width='100px'  fill="#000000" xmlns="http://www.w3.org/2000/svg" xmlns:xlink="http://www.w3.org/1999/xlink" xml:space="preserve" version="1.1" style="shape-rendering:geometricPrecision;text-rendering:geometricPrecision;image-rendering:optimizeQuality;" viewBox="0 0 847 847" x="0px" y="0px" fill-rule="evenodd" clip-rule="evenodd"><defs><style type="text/css">
   
    .fil0 {fill:#000000;fill-rule:nonzero}
   
  </style></defs><g><path class="fil0" d="M711 136c159,159 159,416 0,575 -258,258 -695,71 -695,-288 0,-358 437,-546 695,-287zm-275 -91l0 168c59,-2 116,-16 169,-43 -44,-55 -102,-99 -169,-125zm0 194l0 171 256 0c-2,-81 -28,-156 -72,-219 -57,30 -120,46 -184,48zm282 171l86 0c-3,-102 -47,-195 -116,-261 -15,11 -29,21 -45,30 45,66 73,146 75,231zm86 26l-86 0c-2,86 -30,165 -75,232 15,9 30,19 45,30 69,-67 113,-159 116,-262zm-112 0l-256 0 0 172c64,2 127,18 184,47 44,-62 70,-137 72,-219zm-256 198l0 168c67,-27 125,-70 169,-126 -53,-26 -110,-40 -169,-42zm-26 168l0 -168c-58,2 -116,16 -168,42 44,56 102,99 168,126zm0 -194l0 -172 -256 0c3,82 29,157 72,219 58,-29 120,-45 184,-47zm-282 -172l-86 0c4,103 48,195 117,262 14,-11 29,-21 45,-30 -46,-67 -73,-146 -76,-232zm-86 -26l86 0c3,-85 30,-165 76,-231 -16,-9 -31,-19 -45,-30 -69,67 -113,159 -117,261zm112 0l256 0 0 -171c-64,-2 -126,-18 -184,-48 -43,63 -69,138 -72,219zm256 -197l0 -168c-66,26 -124,70 -168,125 53,27 110,41 168,43zm258 502c-13,-9 -26,-18 -40,-26 -33,42 -74,78 -120,106 60,-14 114,-41 160,-80zm-449 -26c-14,8 -28,17 -40,26 45,39 100,66 160,80 -46,-28 -87,-64 -120,-106zm-40 -558c12,10 26,19 40,27 33,-42 74,-79 120,-106 -60,13 -115,41 -160,79zm449 27c14,-8 27,-17 40,-27 -46,-38 -100,-66 -160,-79 46,27 87,64 120,106z"></path></g></svg>